<?xml version="1.0" encoding="utf-8"?>
<!-- Generator: Adobe Illustrator 25.0.1, SVG Export Plug-In . SVG Version: 6.00 Build 0)  -->
<svg version="1.1" id="Layer_1" xmlns="http://www.w3.org/2000/svg" xmlns:xlink="http://www.w3.org/1999/xlink" x="0px" y="0px"
	 viewBox="0 0 100 100" style="enable-background:new 0 0 100 100;" xml:space="preserve">
<style type="text/css">
	.st0{fill:#C92A1D;}
</style>
<path class="st0" d="M85.5,27h-71c-6.6,0-12-5.4-12-12v-3c0-6.6,5.4-12,12-12h71c6.6,0,12,5.4,12,12v3C97.5,21.6,92.1,27,85.5,27z"
	/>
<path class="st0" d="M85.5,63.5h-71c-6.6,0-12-5.4-12-12v-3c0-6.6,5.4-12,12-12h71c6.6,0,12,5.4,12,12v3
	C97.5,58.1,92.1,63.5,85.5,63.5z"/>
<path class="st0" d="M85.5,100h-71c-6.6,0-12-5.4-12-12v-3c0-6.6,5.4-12,12-12h71c6.6,0,12,5.4,12,12v3C97.5,94.6,92.1,100,85.5,100
	z"/>
</svg>
