<svg xmlns="http://www.w3.org/2000/svg" width="15" height="11" viewBox="0 0 15 11">
    <g fill="none" fill-rule="evenodd">
        <g fill="#000">
            <g>
                <path d="M0 0L0 11 1.222 11 1.222 9.796 2.571 9.796 2.571 8.559 3.728 8.559 3.728 7.289 4.992 7.289 4.992 6.089 6.203 6.089 6.203 11 7.478 11 7.478 9.796 8.777 9.796 8.777 8.559 10.048 8.559 10.048 7.289 11.237 7.289 11.237 6.089 12.48 6.089 12.48 11 15 11 15 0 12.48 0 12.48 4.918 11.237 4.918 11.237 3.607 10.048 3.607 10.048 2.543 8.777 2.543 8.777 1.269 7.5 1.269 7.5 0 6.203 0 6.203 4.918 4.992 4.918 4.992 3.607 3.728 3.607 3.728 2.543 2.571 2.543 2.571 1.269 1.222 1.269 1.222 0z" transform="translate(-67 -318) translate(67 318) matrix(-1 0 0 1 15 0)"/>
            </g>
        </g>
    </g>
</svg>
