<?xml version="1.0" standalone="no"?>


<!DOCTYPE svg PUBLIC "-//W3C//DTD SVG 20010904//EN"
 "http://www.w3.org/TR/2001/REC-SVG-20010904/DTD/svg10.dtd">
<svg version="1.0" xmlns="http://www.w3.org/2000/svg"
 width="282.000000pt" height="224.000000pt" viewBox="0 0 282.000000 224.000000"
 preserveAspectRatio="xMidYMid meet">


<g transform="translate(0.000000,224.000000) scale(0.100000,-0.100000)"
fill="red" stroke="none">
<path d="M0 2000 l0 -240 1410 0 1410 0 0 240 0 240 -1410 0 -1410 0 0 -240z"/>
<path d="M0 1135 l0 -235 1410 0 1410 0 0 235 0 235 -1410 0 -1410 0 0 -235z"/>
<path d="M0 240 l0 -240 1410 0 1410 0 0 240 0 240 -1410 0 -1410 0 0 -240z"/>
</g>
</svg>
