<?xml version="1.0" encoding="UTF-8"?>
<svg width="16px" height="13px" viewBox="0 0 16 13" version="1.1" xmlns="http://www.w3.org/2000/svg" xmlns:xlink="http://www.w3.org/1999/xlink">
    <!-- Generator: Sketch 58 (84663) - https://sketch.com -->
    <title>share</title>
    <desc>Created with Sketch.</desc>
    <g id="share" stroke="none" stroke-width="1" fill="none" fill-rule="evenodd">
        <g id="SHARE" fill="#000000">
            <polygon id="Path" points="3.78468207 2.55603976 2.84217094e-14 2.55603976 2.84217094e-14 12.5409844 12.6654361 12.5409844 12.6654361 9.94448327 11.3735925 9.94448327 11.3735925 11.2834003 1.39783402 11.2834003 1.39783402 3.82428603 3.78468207 3.82428603"></polygon>
            <polygon id="Path-2" points="3.85983888 8.80377244 3.85983888 6.20768136 5.07969167 6.20768136 5.07969167 5.0181708 6.33271807 5.0181708 6.33271807 3.81991182 7.62566292 3.81991182 7.62566292 2.55603976 10.2176092 2.55603976 10.2176092 5.63547113e-14 11.4049766 5.68434189e-14 11.4049766 1.27275717 12.6654361 1.27275717 12.6654361 2.55603976 13.8208688 2.55603976 13.8208688 3.81991182 15.1234491 3.81991182 15.1234491 5.0181708 13.8208688 5.0181708 13.8208688 6.20768136 12.6654361 6.20768136 12.6654361 7.5485121 11.4049766 7.5485121 11.4049766 8.80377244 10.2176092 8.80377244 10.2176092 6.20768136 7.62566292 6.20768136 7.62566292 7.5485121 5.07969167 7.5485121 5.07969167 8.80377244"></polygon>
        </g>
    </g>
</svg>